<mxfile host="Electron" modified="2024-02-08T08:21:05.340Z" agent="Mozilla/5.0 (Windows NT 10.0; Win64; x64) AppleWebKit/537.36 (KHTML, like Gecko) draw.io/23.0.2 Chrome/120.0.6099.109 Electron/28.1.0 Safari/537.36" etag="akuqXH20lqaJDAOaGR7T" version="23.0.2" type="device">
  <diagram name="DCM_IV_Process_Flow" id="tgBKfN92DsGDiq1-liwN">
    <mxGraphModel dx="1091" dy="687" grid="1" gridSize="10" guides="1" tooltips="1" connect="1" arrows="1" fold="1" page="1" pageScale="1" pageWidth="1169" pageHeight="827" math="0" shadow="0">
      <root>
        <mxCell id="0" />
        <mxCell id="1" parent="0" />
        <mxCell id="oFJOVWGkz_0e8NX7XkyU-1" value="" style="swimlane;html=1;startSize=30;fontStyle=0;collapsible=0;horizontal=0;swimlaneLine=1;swimlaneFillColor=#ffffff;strokeWidth=2;whiteSpace=wrap;fontSize=12;container=0;fillColor=#eeeeee;strokeColor=#36393d;" parent="1" vertex="1">
          <mxGeometry x="40" y="40" width="1090" height="300" as="geometry" />
        </mxCell>
        <mxCell id="oFJOVWGkz_0e8NX7XkyU-2" value="Accounting" style="swimlane;html=1;startSize=30;fontStyle=0;collapsible=0;horizontal=0;swimlaneLine=1;swimlaneFillColor=#ffffff;strokeWidth=2;whiteSpace=wrap;fillColor=#dae8fc;strokeColor=#6c8ebf;" parent="oFJOVWGkz_0e8NX7XkyU-1" vertex="1">
          <mxGeometry x="30" width="1060" height="150" as="geometry" />
        </mxCell>
        <mxCell id="oFJOVWGkz_0e8NX7XkyU-7" value="&lt;font style=&quot;font-size: 12px;&quot;&gt;DOX Invoice Preprocessing&lt;/font&gt;" style="points=[[0.25,0,0],[0.5,0,0],[0.75,0,0],[1,0.25,0],[1,0.5,0],[1,0.75,0],[0.75,1,0],[0.5,1,0],[0.25,1,0],[0,0.75,0],[0,0.5,0],[0,0.25,0]];shape=mxgraph.bpmn.task;whiteSpace=wrap;rectStyle=rounded;size=10;html=1;container=1;expand=0;collapsible=0;taskMarker=abstract;fillColor=#fff2cc;strokeColor=#d6b656;fontSize=10;" parent="oFJOVWGkz_0e8NX7XkyU-2" vertex="1">
          <mxGeometry x="262" y="50" width="100" height="50" as="geometry" />
        </mxCell>
        <mxCell id="oFJOVWGkz_0e8NX7XkyU-17" value="Invoice&lt;br&gt;Received" style="points=[[0.145,0.145,0],[0.5,0,0],[0.855,0.145,0],[1,0.5,0],[0.855,0.855,0],[0.5,1,0],[0.145,0.855,0],[0,0.5,0]];shape=mxgraph.bpmn.event;html=1;verticalLabelPosition=bottom;labelBackgroundColor=#ffffff;verticalAlign=top;align=center;perimeter=ellipsePerimeter;outlineConnect=0;aspect=fixed;outline=standard;symbol=general;fontSize=10;labelPosition=center;" parent="oFJOVWGkz_0e8NX7XkyU-2" vertex="1">
          <mxGeometry x="181" y="60" width="30" height="30" as="geometry" />
        </mxCell>
        <mxCell id="oFJOVWGkz_0e8NX7XkyU-18" value="Invoice&lt;br&gt;Processed" style="points=[[0.145,0.145,0],[0.5,0,0],[0.855,0.145,0],[1,0.5,0],[0.855,0.855,0],[0.5,1,0],[0.145,0.855,0],[0,0.5,0]];shape=mxgraph.bpmn.event;html=1;verticalLabelPosition=bottom;labelBackgroundColor=#ffffff;verticalAlign=top;align=center;perimeter=ellipsePerimeter;outlineConnect=0;aspect=fixed;outline=end;symbol=terminate2;fontSize=10;labelPosition=center;" parent="oFJOVWGkz_0e8NX7XkyU-2" vertex="1">
          <mxGeometry x="848" y="60" width="30" height="30" as="geometry" />
        </mxCell>
        <mxCell id="oFJOVWGkz_0e8NX7XkyU-22" value="" style="edgeStyle=elbowEdgeStyle;fontSize=12;html=1;endArrow=blockThin;endFill=1;rounded=0;exitX=1;exitY=0.5;exitDx=0;exitDy=0;exitPerimeter=0;entryX=0;entryY=0.5;entryDx=0;entryDy=0;entryPerimeter=0;" parent="oFJOVWGkz_0e8NX7XkyU-2" source="oFJOVWGkz_0e8NX7XkyU-17" target="oFJOVWGkz_0e8NX7XkyU-7" edge="1">
          <mxGeometry width="160" relative="1" as="geometry">
            <mxPoint x="211" y="67.5" as="sourcePoint" />
            <mxPoint x="393" y="112.5" as="targetPoint" />
          </mxGeometry>
        </mxCell>
        <mxCell id="oFJOVWGkz_0e8NX7XkyU-24" value="" style="edgeStyle=elbowEdgeStyle;fontSize=12;html=1;endArrow=blockThin;endFill=1;rounded=0;exitX=1;exitY=0.5;exitDx=0;exitDy=0;exitPerimeter=0;entryX=0;entryY=0.5;entryDx=0;entryDy=0;entryPerimeter=0;" parent="oFJOVWGkz_0e8NX7XkyU-2" source="oFJOVWGkz_0e8NX7XkyU-7" target="oFJOVWGkz_0e8NX7XkyU-9" edge="1">
          <mxGeometry width="160" relative="1" as="geometry">
            <mxPoint x="272" y="85" as="sourcePoint" />
            <mxPoint x="403" y="82.5" as="targetPoint" />
          </mxGeometry>
        </mxCell>
        <mxCell id="oFJOVWGkz_0e8NX7XkyU-37" value="&lt;font style=&quot;font-size: 12px;&quot;&gt;Post Invoice&lt;/font&gt;" style="points=[[0.25,0,0],[0.5,0,0],[0.75,0,0],[1,0.25,0],[1,0.5,0],[1,0.75,0],[0.75,1,0],[0.5,1,0],[0.25,1,0],[0,0.75,0],[0,0.5,0],[0,0.25,0]];shape=mxgraph.bpmn.task;whiteSpace=wrap;rectStyle=rounded;size=10;html=1;container=1;expand=0;collapsible=0;taskMarker=abstract;fillColor=#fff2cc;strokeColor=#d6b656;fontSize=10;" parent="oFJOVWGkz_0e8NX7XkyU-2" vertex="1">
          <mxGeometry x="695" y="50" width="100" height="50" as="geometry" />
        </mxCell>
        <mxCell id="oFJOVWGkz_0e8NX7XkyU-9" value="&lt;font style=&quot;font-size: 12px;&quot;&gt;Invoice Check&lt;/font&gt;" style="points=[[0.25,0,0],[0.5,0,0],[0.75,0,0],[1,0.25,0],[1,0.5,0],[1,0.75,0],[0.75,1,0],[0.5,1,0],[0.25,1,0],[0,0.75,0],[0,0.5,0],[0,0.25,0]];shape=mxgraph.bpmn.task;whiteSpace=wrap;rectStyle=rounded;size=10;html=1;container=1;expand=0;collapsible=0;taskMarker=abstract;fillColor=#fff2cc;strokeColor=#d6b656;fontSize=10;" parent="oFJOVWGkz_0e8NX7XkyU-2" vertex="1">
          <mxGeometry x="432" y="50" width="100" height="50" as="geometry" />
        </mxCell>
        <mxCell id="oFJOVWGkz_0e8NX7XkyU-20" value="&lt;font style=&quot;font-size: 10px;&quot;&gt;Extended&amp;nbsp; Invoice Check&lt;/font&gt;" style="points=[[0.25,0.25,0],[0.5,0,0],[0.75,0.25,0],[1,0.5,0],[0.75,0.75,0],[0.5,1,0],[0.25,0.75,0],[0,0.5,0]];shape=mxgraph.bpmn.gateway2;html=1;verticalLabelPosition=top;labelBackgroundColor=#ffffff;verticalAlign=bottom;align=center;perimeter=rhombusPerimeter;outlineConnect=0;outline=none;symbol=none;gwType=exclusive;fontSize=10;labelPosition=center;" parent="oFJOVWGkz_0e8NX7XkyU-2" vertex="1">
          <mxGeometry x="597" y="60" width="30" height="30" as="geometry" />
        </mxCell>
        <mxCell id="oFJOVWGkz_0e8NX7XkyU-33" value="" style="fontSize=12;html=1;endArrow=blockThin;endFill=1;rounded=0;exitX=1;exitY=0.5;exitDx=0;exitDy=0;exitPerimeter=0;entryX=0;entryY=0.5;entryDx=0;entryDy=0;entryPerimeter=0;" parent="oFJOVWGkz_0e8NX7XkyU-2" source="oFJOVWGkz_0e8NX7XkyU-20" target="oFJOVWGkz_0e8NX7XkyU-37" edge="1">
          <mxGeometry width="160" relative="1" as="geometry">
            <mxPoint x="700" y="107.5" as="sourcePoint" />
            <mxPoint x="731" y="107.5" as="targetPoint" />
          </mxGeometry>
        </mxCell>
        <mxCell id="bkIOkjlxhRuOmOa1WSnX-4" value="No" style="edgeLabel;html=1;align=center;verticalAlign=middle;resizable=0;points=[];" parent="oFJOVWGkz_0e8NX7XkyU-33" vertex="1" connectable="0">
          <mxGeometry x="-0.0735" y="-1" relative="1" as="geometry">
            <mxPoint x="-19" y="14" as="offset" />
          </mxGeometry>
        </mxCell>
        <mxCell id="oFJOVWGkz_0e8NX7XkyU-26" value="" style="edgeStyle=elbowEdgeStyle;fontSize=12;html=1;endArrow=blockThin;endFill=1;rounded=0;exitX=1;exitY=0.5;exitDx=0;exitDy=0;exitPerimeter=0;entryX=0;entryY=0.5;entryDx=0;entryDy=0;entryPerimeter=0;" parent="oFJOVWGkz_0e8NX7XkyU-2" source="oFJOVWGkz_0e8NX7XkyU-9" target="oFJOVWGkz_0e8NX7XkyU-20" edge="1">
          <mxGeometry width="160" relative="1" as="geometry">
            <mxPoint x="540" y="83" as="sourcePoint" />
            <mxPoint x="606" y="77.5" as="targetPoint" />
          </mxGeometry>
        </mxCell>
        <mxCell id="bkIOkjlxhRuOmOa1WSnX-3" value="" style="fontSize=12;html=1;endArrow=blockThin;endFill=1;rounded=0;entryX=0;entryY=0.5;entryDx=0;entryDy=0;entryPerimeter=0;exitX=1;exitY=0.5;exitDx=0;exitDy=0;exitPerimeter=0;" parent="oFJOVWGkz_0e8NX7XkyU-2" source="oFJOVWGkz_0e8NX7XkyU-37" target="oFJOVWGkz_0e8NX7XkyU-18" edge="1">
          <mxGeometry width="160" relative="1" as="geometry">
            <mxPoint x="798" y="75" as="sourcePoint" />
            <mxPoint x="705" y="85" as="targetPoint" />
          </mxGeometry>
        </mxCell>
        <mxCell id="oFJOVWGkz_0e8NX7XkyU-3" value="External Validation" style="swimlane;html=1;startSize=30;fontStyle=0;collapsible=0;horizontal=0;swimlaneLine=1;swimlaneFillColor=#ffffff;strokeWidth=2;whiteSpace=wrap;fillColor=#ffe6cc;strokeColor=#d79b00;" parent="oFJOVWGkz_0e8NX7XkyU-1" vertex="1">
          <mxGeometry x="30" y="150" width="1060" height="150" as="geometry" />
        </mxCell>
        <mxCell id="bkIOkjlxhRuOmOa1WSnX-1" value="&lt;font style=&quot;font-size: 12px;&quot;&gt;Invoice Check&lt;/font&gt;" style="points=[[0.25,0,0],[0.5,0,0],[0.75,0,0],[1,0.25,0],[1,0.5,0],[1,0.75,0],[0.75,1,0],[0.5,1,0],[0.25,1,0],[0,0.75,0],[0,0.5,0],[0,0.25,0]];shape=mxgraph.bpmn.task;whiteSpace=wrap;rectStyle=rounded;size=10;html=1;container=1;expand=0;collapsible=0;taskMarker=abstract;fillColor=#fff2cc;strokeColor=#d6b656;fontSize=10;" parent="oFJOVWGkz_0e8NX7XkyU-3" vertex="1">
          <mxGeometry x="562" y="50" width="100" height="50" as="geometry" />
        </mxCell>
        <mxCell id="oFJOVWGkz_0e8NX7XkyU-27" value="" style="fontSize=12;html=1;endArrow=blockThin;endFill=1;rounded=0;exitX=0.5;exitY=1;exitDx=0;exitDy=0;exitPerimeter=0;entryX=0.5;entryY=0;entryDx=0;entryDy=0;entryPerimeter=0;" parent="oFJOVWGkz_0e8NX7XkyU-1" source="oFJOVWGkz_0e8NX7XkyU-20" target="bkIOkjlxhRuOmOa1WSnX-1" edge="1">
          <mxGeometry width="160" relative="1" as="geometry">
            <mxPoint x="577" y="87.5" as="sourcePoint" />
            <mxPoint x="637" y="207" as="targetPoint" />
          </mxGeometry>
        </mxCell>
        <mxCell id="oFJOVWGkz_0e8NX7XkyU-39" value="Yes" style="edgeLabel;html=1;align=center;verticalAlign=middle;resizable=0;points=[];fontSize=10;" parent="oFJOVWGkz_0e8NX7XkyU-27" vertex="1" connectable="0">
          <mxGeometry x="-0.2544" y="2" relative="1" as="geometry">
            <mxPoint x="-17" y="-32" as="offset" />
          </mxGeometry>
        </mxCell>
        <mxCell id="oFJOVWGkz_0e8NX7XkyU-43" value="" style="fontSize=12;html=1;endArrow=blockThin;endFill=1;rounded=0;exitX=0;exitY=0.5;exitDx=0;exitDy=0;exitPerimeter=0;entryX=0.5;entryY=1;entryDx=0;entryDy=0;entryPerimeter=0;edgeStyle=orthogonalEdgeStyle;" parent="oFJOVWGkz_0e8NX7XkyU-1" source="bkIOkjlxhRuOmOa1WSnX-1" target="oFJOVWGkz_0e8NX7XkyU-9" edge="1">
          <mxGeometry width="160" relative="1" as="geometry">
            <mxPoint x="557" y="232" as="sourcePoint" />
            <mxPoint x="684" y="217" as="targetPoint" />
          </mxGeometry>
        </mxCell>
      </root>
    </mxGraphModel>
  </diagram>
</mxfile>
